<?xml version="1.0" encoding="UTF-8" standalone="no"?>
<svg
   xmlns:dc="http://purl.org/dc/elements/1.1/"
   xmlns:cc="http://creativecommons.org/ns#"
   xmlns:rdf="http://www.w3.org/1999/02/22-rdf-syntax-ns#"
   xmlns:svg="http://www.w3.org/2000/svg"
   xmlns="http://www.w3.org/2000/svg"
   xmlns:sodipodi="http://sodipodi.sourceforge.net/DTD/sodipodi-0.dtd"
   xmlns:inkscape="http://www.inkscape.org/namespaces/inkscape"
   version="1.1"
   id="svg2"
   xml:space="preserve"
   width="500"
   height="500"
   viewBox="0 0 500 500"
   sodipodi:docname="logo.svg"
   inkscape:version="1.0 (6e3e5246a0, 2020-05-07)"><metadata
     id="metadata8"><rdf:RDF><cc:Work
         rdf:about=""><dc:format>image/svg+xml</dc:format><dc:type
           rdf:resource="http://purl.org/dc/dcmitype/StillImage" /><dc:title /></cc:Work></rdf:RDF></metadata><defs
     id="defs6" /><sodipodi:namedview
     inkscape:document-rotation="0"
     pagecolor="#ffffff"
     bordercolor="#666666"
     borderopacity="1"
     objecttolerance="10"
     gridtolerance="10"
     guidetolerance="10"
     inkscape:pageopacity="0"
     inkscape:pageshadow="2"
     inkscape:window-width="1920"
     inkscape:window-height="1025"
     id="namedview4"
     showgrid="false"
     inkscape:zoom="1.2194444"
     inkscape:cx="210.83249"
     inkscape:cy="208.59762"
     inkscape:window-x="0"
     inkscape:window-y="27"
     inkscape:window-maximized="1"
     inkscape:current-layer="text20"
     inkscape:snap-text-baseline="false" /><g
     id="g10"
     inkscape:groupmode="layer"
     inkscape:label="Proyecto fisura Logo"
     transform="matrix(1.3333333,0,0,-1.3333333,0,1440)"><g
       id="g895"
       transform="translate(-0.22974227,-11.541231)"
       style="opacity:0.994"><g
         style="font-style:normal;font-variant:normal;font-weight:normal;font-stretch:normal;font-size:42px;font-family:Kiona;-inkscape-font-specification:'Kiona, Normal';font-variant-ligatures:normal;font-variant-caps:normal;font-variant-numeric:normal;font-variant-east-asian:normal;writing-mode:lr-tb;fill:#000000;fill-opacity:1;fill-rule:nonzero;stroke:none"
         id="text20"
         transform="scale(1,-1)"
         aria-label="FISURA"><path
           id="path875"
           d="m 78.077189,-846.83862 v -12.642 h 12.348 v -1.974 h -12.348 v -10.752 h 15.792 v -1.932 h -17.682 v 27.3 z" /><path
           id="path877"
           d="m 120.74919,-846.83862 v -27.3 h -1.89 v 27.3 z" /><path
           id="path879"
           d="m 161.1112,-860.06862 q 1.932,1.092 2.982,2.688 1.092,1.554 1.092,3.36 0,1.554 -0.756,2.982 -0.756,1.386 -2.184,2.436 -2.94,2.1 -6.846,2.1 -1.932,0 -3.696,-0.546 -1.764,-0.546 -3.15,-1.554 -2.394,-1.764 -2.898,-4.326 l 1.806,-1.008 q 0.126,2.31 2.268,3.78 1.092,0.84 2.562,1.302 1.47,0.42 3.108,0.42 3.36,0 5.67,-1.722 2.226,-1.638 2.226,-3.864 0,-1.302 -0.84,-2.436 -0.798,-1.134 -2.268,-1.932 -1.386,-0.714 -4.956,-1.134 -0.294,-0.042 -2.142,-0.336 -1.806,-0.294 -3.108,-0.924 -2.058,-1.008 -3.234,-2.646 -1.176,-1.68 -1.176,-3.612 0,-1.554 0.756,-2.898 0.798,-1.386 2.226,-2.436 1.386,-1.008 3.15,-1.554 1.764,-0.546 3.696,-0.546 3.906,0 6.846,2.1 2.436,1.848 2.856,4.284 l -1.806,1.008 q -0.042,-1.05 -0.63,-2.016 -0.546,-0.966 -1.596,-1.764 -1.134,-0.84 -2.604,-1.26 -1.47,-0.462 -3.066,-0.462 -1.596,0 -3.108,0.462 -1.47,0.42 -2.562,1.26 -1.092,0.798 -1.68,1.806 -0.588,0.966 -0.588,2.016 0,1.302 0.966,2.604 0.966,1.26 2.394,1.974 0.882,0.42 1.932,0.63 1.092,0.168 2.772,0.378 0.294,0.042 1.47,0.21 1.176,0.168 2.268,0.462 1.092,0.294 1.848,0.714 z" /><path
           id="path881"
           d="m 199.96119,-846.54462 q 2.142,0 4.032,-0.798 1.89,-0.84 3.36,-2.352 1.47,-1.428 2.226,-3.36 0.798,-1.932 0.798,-4.074 v -17.01 h -1.89 v 17.01 q 0,1.764 -0.672,3.36 -0.63,1.596 -1.806,2.772 -1.218,1.218 -2.772,1.89 -1.554,0.63 -3.276,0.63 -1.68,0 -3.234,-0.63 -1.554,-0.672 -2.772,-1.89 -1.176,-1.176 -1.848,-2.772 -0.63,-1.596 -0.63,-3.36 v -17.01 h -1.89 v 17.01 q 0,2.142 0.756,4.074 0.798,1.932 2.268,3.36 1.47,1.512 3.36,2.352 1.932,0.798 3.99,0.798 z" /><path
           id="path883"
           d="m 251.6632,-846.83862 -11.34,-13.776 h 3.36 q 3.108,0 5.04,-0.798 1.428,-0.672 2.478,-2.016 1.05,-1.386 1.05,-3.024 0,-1.47 -0.882,-2.772 -0.882,-1.344 -2.52,-2.184 -1.638,-0.84 -3.78,-0.84 h -7.644 v 25.41 h -1.89 v -27.3 h 9.534 q 1.932,0 3.612,0.63 1.68,0.588 2.94,1.722 1.218,1.092 1.848,2.478 0.672,1.386 0.672,2.856 0,2.31 -1.386,4.158 -1.386,1.806 -3.276,2.604 -1.302,0.588 -2.562,0.756 -1.218,0.126 -2.604,0.126 l 9.87,11.97 z" /><path
           id="path885"
           d="m 282.15519,-853.76862 -3.234,6.93 h -2.1 l 12.852,-27.636 12.138,27.636 h -2.058 l -3.066,-6.93 z m 7.434,-16.044 -6.552,14.154 h 12.81 z" /></g><g
         style="fill:#000000"
         transform="translate(301.35639,957.83861)"
         id="g22"><path
           id="path24"
           style="fill:#000000;fill-opacity:1;fill-rule:nonzero;stroke:none"
           d="m 0,0 0.018,2 -51.009,0.461 v -2 z" /></g><g
         style="fill:#000000"
         transform="translate(238.36519,960.33661)"
         id="g26"><path
           id="path28"
           style="fill:#000000;fill-opacity:1;fill-rule:nonzero;stroke:none"
           d="m 0,0 -165.991,1.502 -0.018,-2 L 0,-2 Z" /></g><g
         style="fill:#000000"
         transform="translate(73.37449,940.33861)"
         id="g30"><path
           id="path32"
           style="fill:#000000;fill-opacity:1;fill-rule:nonzero;stroke:none"
           d="m 0,0 -0.019,-2 117.01,-1.059 v 2 z" /></g><g
         style="fill:#000000"
         transform="translate(302.35639,936.33861)"
         id="g34"><path
           id="path36"
           style="fill:#000000;fill-opacity:1;fill-rule:nonzero;stroke:none"
           d="M 0,0 0.018,2 -99.991,2.905 v -2 z" /></g><g
         style="fill:#000000"
         transform="translate(230.36519,914.99001)"
         id="g38"><path
           id="path40"
           style="fill:#000000;fill-opacity:1;fill-rule:nonzero;stroke:none"
           d="m 0,0 71.991,-0.651 0.018,2 L 0,2 Z" /></g><g
         style="fill:#000000"
         transform="translate(73.37449,918.33861)"
         id="g42"><path
           id="path44"
           style="fill:#000000;fill-opacity:1;fill-rule:nonzero;stroke:none"
           d="m 0,0 -0.019,-2 145.01,-1.313 v 2.001 z" /></g><g
         style="fill:#000000"
         transform="translate(72.37449,898.33861)"
         id="g46"><path
           id="path48"
           style="fill:#000000;fill-opacity:1;fill-rule:nonzero;stroke:none"
           d="m 0,0 -0.019,-2 193.01,-1.747 v 2.001 z" /></g><g
         style="fill:#000000"
         transform="translate(277.36519,894.55541)"
         id="g50"><path
           id="path52"
           style="fill:#000000;fill-opacity:1;fill-rule:nonzero;stroke:none"
           d="m 0,0 23.991,-0.217 0.018,2 L 0,2 Z" /></g></g></g></svg>
